HIERARCHY
ROOT Joint0
{
  OFFSET 0.0000 0.0000 1.0000
  CHANNELS 6 Xposition Yposition Zposition Zrotation Xrotation Yrotation
  JOINT Joint1
  {
    OFFSET 0.0811 -0.0899 -0.0114
    CHANNELS 3 Zrotation Xrotation Yrotation
    JOINT Joint4
    {
      OFFSET 0.0297 -0.3677 -0.0039
      CHANNELS 3 Zrotation Xrotation Yrotation
      JOINT Joint7
      {
        OFFSET -0.0120 -0.3841 -0.0490
        CHANNELS 3 Zrotation Xrotation Yrotation
        JOINT Joint10
        {
          OFFSET 0.0247 -0.0555 0.1226
          CHANNELS 3 Zrotation Xrotation Yrotation
          End Site
          {
            OFFSET 0.0247 -0.0555 0.1226
          }
        }
      }
    }
  }
  JOINT Joint2
  {
    OFFSET -0.0773 -0.0878 -0.0084
    CHANNELS 3 Zrotation Xrotation Yrotation
    JOINT Joint5
    {
      OFFSET -0.0344 -0.3716 -0.0062
      CHANNELS 3 Zrotation Xrotation Yrotation
      JOINT Joint8
      {
        OFFSET 0.0139 -0.3835 -0.0484
        CHANNELS 3 Zrotation Xrotation Yrotation
        JOINT Joint11
        {
          OFFSET -0.0293 -0.0469 0.1263
          CHANNELS 3 Zrotation Xrotation Yrotation
          End Site
          {
            OFFSET -0.0293 -0.0469 0.1263
          }
        }
      }
    }
  }
  JOINT Joint3
  {
    OFFSET -0.0027 0.1037 -0.0232
    CHANNELS 3 Zrotation Xrotation Yrotation
    JOINT Joint6
    {
      OFFSET 0.0030 0.1296 -0.0027
      CHANNELS 3 Zrotation Xrotation Yrotation
      JOINT Joint9
      {
        OFFSET 0.0015 0.0533 0.0332
        CHANNELS 3 Zrotation Xrotation Yrotation
        JOINT Joint12
        {
          OFFSET -0.0004 0.2283 -0.0600
          CHANNELS 3 Zrotation Xrotation Yrotation
          JOINT Joint15
          {
            OFFSET 0.0048 0.0641 0.0558
            CHANNELS 3 Zrotation Xrotation Yrotation
            End Site
            {
              OFFSET 0.0048 0.0641 0.0558
            }
          }
        }
        JOINT Joint13
        {
          OFFSET 0.0787 0.1275 -0.0430
          CHANNELS 3 Zrotation Xrotation Yrotation
          JOINT Joint16
          {
            OFFSET 0.0914 0.0355 -0.0086
            CHANNELS 3 Zrotation Xrotation Yrotation
            JOINT Joint18
            {
              OFFSET 0.2512 -0.0141 -0.0294
              CHANNELS 3 Zrotation Xrotation Yrotation
              JOINT Joint20
              {
                OFFSET 0.2431 0.0092 0.0027
                CHANNELS 3 Zrotation Xrotation Yrotation
                JOINT Joint22
                {
                  OFFSET 0.1053 -0.0108 0.0234
                  CHANNELS 3 Zrotation Xrotation Yrotation
                  JOINT Joint23
                  {
                    OFFSET 0.0332 0.0042 0.0030
                    CHANNELS 3 Zrotation Xrotation Yrotation
                    JOINT Joint24
                    {
                      OFFSET 0.0234 -0.0009 0.0005
                      CHANNELS 3 Zrotation Xrotation Yrotation
                      End Site
                      {
                        OFFSET 0.0234 -0.0009 0.0005
                      }
                    }
                  }
                }
                JOINT Joint25
                {
                  OFFSET 0.1126 -0.0078 -0.0002
                  CHANNELS 3 Zrotation Xrotation Yrotation
                  JOINT Joint26
                  {
                    OFFSET 0.0317 0.0021 -0.0047
                    CHANNELS 3 Zrotation Xrotation Yrotation
                    JOINT Joint27
                    {
                      OFFSET 0.0246 -0.0008 -0.0039
                      CHANNELS 3 Zrotation Xrotation Yrotation
                      End Site
                      {
                        OFFSET 0.0246 -0.0008 -0.0039
                      }
                    }
                  }
                }
                JOINT Joint28
                {
                  OFFSET 0.0860 -0.0168 -0.0403
                  CHANNELS 3 Zrotation Xrotation Yrotation
                  JOINT Joint29
                  {
                    OFFSET 0.0158 -0.0006 -0.0114
                    CHANNELS 3 Zrotation Xrotation Yrotation
                    JOINT Joint30
                    {
                      OFFSET 0.0161 -0.0011 -0.0109
                      CHANNELS 3 Zrotation Xrotation Yrotation
                      End Site
                      {
                        OFFSET 0.0161 -0.0011 -0.0109
                      }
                    }
                  }
                }
                JOINT Joint31
                {
                  OFFSET 0.0999 -0.0111 -0.0238
                  CHANNELS 3 Zrotation Xrotation Yrotation
                  JOINT Joint32
                  {
                    OFFSET 0.0286 0.0023 -0.0053
                    CHANNELS 3 Zrotation Xrotation Yrotation
                    JOINT Joint33
                    {
                      OFFSET 0.0234 -0.0009 -0.0074
                      CHANNELS 3 Zrotation Xrotation Yrotation
                      End Site
                      {
                        OFFSET 0.0234 -0.0009 -0.0074
                      }
                    }
                  }
                }
                JOINT Joint34
                {
                  OFFSET 0.0426 -0.0219 0.0277
                  CHANNELS 3 Zrotation Xrotation Yrotation
                  JOINT Joint35
                  {
                    OFFSET 0.0185 0.0008 0.0246
                    CHANNELS 3 Zrotation Xrotation Yrotation
                    JOINT Joint36
                    {
                      OFFSET 0.0221 -0.0048 0.0152
                      CHANNELS 3 Zrotation Xrotation Yrotation
                      End Site
                      {
                        OFFSET 0.0221 -0.0048 0.0152
                      }
                    }
                  }
                }
              }
            }
          }
        }
        JOINT Joint14
        {
          OFFSET -0.0815 0.1251 -0.0492
          CHANNELS 3 Zrotation Xrotation Yrotation
          JOINT Joint17
          {
            OFFSET -0.0975 0.0385 -0.0099
            CHANNELS 3 Zrotation Xrotation Yrotation
            JOINT Joint19
            {
              OFFSET -0.2546 -0.0159 -0.0229
              CHANNELS 3 Zrotation Xrotation Yrotation
              JOINT Joint21
              {
                OFFSET -0.2519 0.0079 0.0007
                CHANNELS 3 Zrotation Xrotation Yrotation
                JOINT Joint37
                {
                  OFFSET -0.1043 -0.0103 0.0246
                  CHANNELS 3 Zrotation Xrotation Yrotation
                  JOINT Joint38
                  {
                    OFFSET -0.0341 0.0034 0.0025
                    CHANNELS 3 Zrotation Xrotation Yrotation
                    JOINT Joint39
                    {
                      OFFSET -0.0236 -0.0015 -0.0003
                      CHANNELS 3 Zrotation Xrotation Yrotation
                      End Site
                      {
                        OFFSET -0.0236 -0.0015 -0.0003
                      }
                    }
                  }
                }
                JOINT Joint40
                {
                  OFFSET -0.1123 -0.0074 -0.0003
                  CHANNELS 3 Zrotation Xrotation Yrotation
                  JOINT Joint41
                  {
                    OFFSET -0.0322 0.0016 -0.0048
                    CHANNELS 3 Zrotation Xrotation Yrotation
                    JOINT Joint42
                    {
                      OFFSET -0.0245 -0.0012 -0.0045
                      CHANNELS 3 Zrotation Xrotation Yrotation
                      End Site
                      {
                        OFFSET -0.0245 -0.0012 -0.0045
                      }
                    }
                  }
                }
                JOINT Joint43
                {
                  OFFSET -0.0863 -0.0161 -0.0419
                  CHANNELS 3 Zrotation Xrotation Yrotation
                  JOINT Joint44
                  {
                    OFFSET -0.0162 -0.0001 -0.0120
                    CHANNELS 3 Zrotation Xrotation Yrotation
                    JOINT Joint45
                    {
                      OFFSET -0.0165 -0.0007 -0.0110
                      CHANNELS 3 Zrotation Xrotation Yrotation
                      End Site
                      {
                        OFFSET -0.0165 -0.0007 -0.0110
                      }
                    }
                  }
                }
                JOINT Joint46
                {
                  OFFSET -0.0999 -0.0107 -0.0248
                  CHANNELS 3 Zrotation Xrotation Yrotation
                  JOINT Joint47
                  {
                    OFFSET -0.0290 0.0016 -0.0050
                    CHANNELS 3 Zrotation Xrotation Yrotation
                    JOINT Joint48
                    {
                      OFFSET -0.0236 -0.0012 -0.0076
                      CHANNELS 3 Zrotation Xrotation Yrotation
                      End Site
                      {
                        OFFSET -0.0236 -0.0012 -0.0076
                      }
                    }
                  }
                }
                JOINT Joint49
                {
                  OFFSET -0.0397 -0.0214 0.0306
                  CHANNELS 3 Zrotation Xrotation Yrotation
                  JOINT Joint50
                  {
                    OFFSET -0.0191 0.0007 0.0247
                    CHANNELS 3 Zrotation Xrotation Yrotation
                    JOINT Joint51
                    {
                      OFFSET -0.0231 -0.0056 0.0141
                      CHANNELS 3 Zrotation Xrotation Yrotation
                      End Site
                      {
                        OFFSET -0.0231 -0.0056 0.0141
                      }
                    }
                  }
                }
              }
            }
          }
        }
      }
    }
  }
}
MOTION
Frames: 5
Frame Time: 0.0333
0.0000 0.0000 0.0000 85.8571 84.7268 50.7218 18.6807 -6.1556 -24.5663 -1.3771 41.6542 -11.0755 -9.6921 -8.9403 -5.6458 -0.3349 -0.0778 0.6112 -10.2822 -23.7676 20.3865 16.9304 18.1083 -23.6246 19.2828 -12.1978 44.5972 0.4016 -0.6604 0.0235 -3.8194 27.3426 15.2607 26.3439 3.9549 4.3858 -13.8936 -8.5422 35.5985 -8.0262 -23.3844 10.6625 -10.3990 -2.3330 -30.9122 -15.2317 12.9148 -29.0748 -53.8979 13.0508 -79.1509 10.4459 -17.9242 -21.1987 52.9891 -16.1141 -10.0537 -23.4330 5.7026 3.3324 -42.9532 7.2901 -1.0901 -11.4320 -4.7424 -5.6514 -30.2677 -7.6554 0.8090 -40.5401 -8.5503 -0.1621 -19.7908 -0.3144 -5.2262 -40.3946 -20.8980 -19.1927 -30.0360 -11.0917 -6.5918 -5.5262 -21.2637 -4.5486 -36.8120 -5.5454 -6.8750 -36.9967 -15.0198 -8.6161 -22.7683 -8.3580 -9.5456 -16.7281 46.5389 24.0914 3.6223 -27.9481 2.1865 -17.8476 30.2246 8.1768 9.4299 7.9110 71.1755 -5.3646 4.3420 32.4286 -63.5741 27.3478 64.9939 -21.2743 22.4239 7.5228 24.8652 5.2038 -4.1088 42.9905 7.5792 0.6812 10.8561 -5.3354 5.8085 30.1041 -7.0071 -0.7368 40.2873 -8.4042 0.3032 19.8697 -0.1952 5.6861 39.6450 -20.5857 19.4085 29.9123 -10.7834 6.9085 5.4665 -21.1864 4.3097 36.3059 -6.2989 7.4232 38.3385 -14.9435 8.5791 22.0255 -8.4862 8.8446 15.8496 46.9219 -23.5509 -4.1774 -28.8260 -2.1814 18.4094 29.2182 -7.8382
0.0000 0.0000 0.0000 85.9891 84.6362 50.6851 18.7762 -6.2868 -24.3736 -1.5761 41.6689 -10.8932 -9.8930 -8.9218 -5.3617 -0.2746 -0.0688 0.5497 -10.8247 -23.6683 19.8281 16.9008 18.0523 -23.5409 19.1520 -12.2007 44.2828 0.4044 -0.6497 -0.0197 -3.6043 27.3457 15.2096 26.2626 4.0795 4.5317 -14.0658 -8.6300 35.9080 -7.9400 -23.2664 10.6166 -10.5025 -2.5322 -30.8907 -15.5105 12.8444 -29.1723 -53.7761 13.0228 -79.2602 10.4603 -18.1331 -21.2029 53.1612 -16.1498 -10.0340 -23.4891 5.6072 3.4038 -42.8735 7.2862 -1.1003 -11.5000 -4.7645 -5.6443 -30.2752 -7.6987 0.8603 -40.5491 -8.5997 -0.0915 -19.7080 -0.2914 -5.1855 -40.4498 -20.8532 -19.2347 -29.9648 -11.0589 -6.6702 -5.5177 -21.2805 -4.6860 -36.7342 -5.5615 -6.8071 -37.1252 -15.0113 -8.8153 -22.6535 -8.2447 -9.5848 -16.6693 46.6318 24.0412 3.6651 -27.8214 2.0829 -18.0280 30.1963 8.3009 9.3387 7.7434 71.1665 -5.6679 4.1059 32.2554 -63.6711 27.2127 65.1140 -21.1275 22.4098 7.5884 24.8501 5.1901 -4.1888 43.0667 7.5194 0.6287 10.7866 -5.2982 5.6914 30.0343 -6.9848 -0.8301 40.2274 -8.4307 0.2297 19.7826 -0.3065 5.7198 39.6871 -20.6045 19.4571 29.8855 -10.7791 6.8626 5.4129 -21.1497 4.2077 36.2500 -6.2785 7.4084 38.1954 -14.9199 8.4916 21.9113 -8.5725 8.8450 15.7275 46.9365 -23.5259 -4.0924 -28.8102 -2.0342 18.4698 29.1802 -7.9388
0.0000 0.0000 0.0000 85.1340 84.6660 51.7168 18.7515 -6.4343 -24.3839 -1.5809 41.9420 -11.0224 -9.9988 -9.0364 -5.3218 -0.3039 -0.1427 0.5085 -11.1470 -23.6233 19.8722 16.9882 17.8935 -23.7483 19.1935 -12.1241 44.6979 0.4024 -0.6108 -0.0240 -3.3890 27.6625 15.4225 26.3182 4.1937 4.6884 -14.2901 -9.0708 36.5301 -8.1599 -23.3347 10.6985 -10.7458 -2.5713 -31.3391 -15.5631 12.8967 -29.4596 -53.4349 12.9971 -79.3816 10.5348 -18.3205 -21.1984 53.8846 -16.2435 -9.9935 -23.4656 5.5833 3.4800 -42.8196 7.2586 -1.1256 -11.5115 -4.7665 -5.5991 -30.2347 -7.7048 0.9608 -40.5322 -8.6330 -0.1043 -19.6589 -0.2162 -5.1458 -40.4525 -20.8411 -19.2685 -30.0331 -11.0323 -6.7218 -5.5143 -21.1486 -4.7422 -36.7056 -5.6114 -6.7496 -37.2634 -15.0136 -8.9171 -22.5740 -8.2154 -9.5591 -16.6035 46.5659 24.0438 3.6080 -27.6496 1.9551 -18.0630 30.1725 8.3409 9.0176 7.5275 71.5257 -5.8563 4.0864 32.2306 -64.1193 27.2161 65.2855 -20.9670 22.5291 7.4692 24.7876 5.2068 -4.2317 43.1484 7.5318 0.6678 10.7693 -5.2440 5.6305 30.1608 -6.9007 -0.9129 40.1648 -8.4446 0.2587 19.8230 -0.3460 5.7576 39.6978 -20.6406 19.4864 29.8602 -10.8057 6.8094 5.4205 -21.1326 4.2653 36.2865 -6.1959 7.4562 38.1548 -14.8990 8.5059 21.8644 -8.6087 8.8723 15.7132 46.8788 -23.5180 -3.9901 -28.7992 -1.9703 18.5462 29.1279 -8.0688
0.0000 0.0000 0.0000 83.7374 84.7188 53.2981 18.6758 -6.6138 -24.5258 -1.4797 42.0735 -11.2302 -10.0715 -9.2873 -5.4248 -0.3794 -0.2158 0.4830 -11.4375 -23.6689 20.2536 17.1567 17.7512 -24.1081 19.2632 -12.0450 45.2384 0.3583 -0.5966 -0.0198 -3.1909 28.2473 15.8887 26.4925 4.3125 4.8197 -14.4471 -9.5524 37.1545 -8.5838 -23.6122 10.7997 -11.0509 -2.5833 -31.9790 -15.4222 12.9575 -29.8161 -52.9844 12.9660 -79.5246 10.5797 -18.5371 -21.1225 54.5824 -16.2905 -9.9763 -23.4528 5.6052 3.5121 -42.7948 7.2396 -1.1457 -11.4815 -4.7913 -5.5185 -30.1890 -7.6752 1.0236 -40.4934 -8.6750 -0.1114 -19.6880 -0.2183 -5.1292 -40.4172 -20.8501 -19.2466 -30.1306 -11.0437 -6.7543 -5.5099 -20.9834 -4.7123 -36.6917 -5.6668 -6.7007 -37.3283 -15.0045 -8.9531 -22.5987 -8.2597 -9.5761 -16.5809 46.4798 24.0645 3.5710 -27.5612 1.9033 -17.9789 30.2120 8.3550 8.7474 7.4121 71.9603 -6.0869 4.1895 32.2966 -64.6902 27.3079 65.4747 -20.8859 22.6869 7.2776 24.6994 5.2335 -4.2432 43.2445 7.5456 0.7459 10.7986 -5.2572 5.6325 30.3245 -6.9025 -0.9301 40.0729 -8.4249 0.2373 19.8693 -0.3166 5.7678 39.7182 -20.6322 19.5164 29.8902 -10.8010 6.8085 5.4283 -21.1229 4.3675 36.3514 -6.1462 7.4512 38.1804 -14.9137 8.5922 21.8823 -8.6059 8.9171 15.7819 46.8150 -23.6072 -3.9347 -28.7636 -1.9644 18.6007 29.1276 -8.1202
0.0000 0.0000 0.0000 82.8288 84.7185 54.3812 18.6351 -6.7719 -24.5794 -1.4433 42.0599 -11.2350 -10.1252 -9.5477 -5.4951 -0.4302 -0.2490 0.4800 -11.8972 -23.6855 20.4481 17.2681 17.6560 -24.3920 19.2669 -12.0687 45.3980 0.3138 -0.5731 -0.0021 -3.0390 28.8134 16.4724 26.7032 4.4320 4.9180 -14.5461 -9.9057 37.5817 -8.9658 -23.9573 10.8005 -11.2669 -2.7066 -32.4169 -15.3085 12.9566 -30.0742 -52.7283 12.8671 -79.5505 10.5737 -18.7182 -20.9918 54.9179 -16.2868 -9.9732 -23.4675 5.6382 3.4642 -42.8215 7.2445 -1.1721 -11.4765 -4.8140 -5.4912 -30.1883 -7.6259 1.0404 -40.4368 -8.7223 -0.1268 -19.7028 -0.2694 -5.1113 -40.3808 -20.8523 -19.2128 -30.1543 -11.0864 -6.7328 -5.4830 -20.8750 -4.6787 -36.6803 -5.7245 -6.6767 -37.3547 -14.9709 -8.9747 -22.6945 -8.3266 -9.6045 -16.6718 46.4842 24.1824 3.5581 -27.6114 1.9260 -17.8708 30.3339 8.3654 8.7108 7.4803 72.1867 -6.4171 4.3192 32.3703 -65.0054 27.3307 65.6204 -20.8677 22.7151 7.1454 24.6225 5.2272 -4.2558 43.3010 7.5357 0.7877 10.8086 -5.2886 5.6399 30.4244 -6.9506 -0.9123 40.0438 -8.4574 0.1860 19.9028 -0.2838 5.7683 39.7286 -20.6139 19.5747 29.8973 -10.7547 6.8067 5.3976 -21.1153 4.4101 36.3752 -6.2147 7.4054 38.2007 -14.9411 8.6431 21.9089 -8.5817 8.9114 15.8864 46.7741 -23.7694 -3.9357 -28.7312 -1.9787 18.5859 29.1826 -8.1154
